# Blender 4.0.2
# www.blender.org
mtllib academy.mtl
o floor
v -7.750000 -15.890000 0.000000
v 7.750000 -15.890000 0.000000
v -7.750000 15.890000 0.000000
v 7.750000 15.890000 0.000000
vn -0.0000 -0.0000 1.0000
vt 0.000000 0.000000
vt 1.000000 0.000000
vt 1.000000 1.000000
vt 0.000000 1.000000
s 0
usemtl TileFloor
f 1/1/1 2/2/1 4/3/1 3/4/1
o wall1
v 7.498245 -15.940351 0.000000
v 7.498245 -15.940351 6.000000
v 7.498245 15.839649 0.000000
v 7.498245 15.839649 6.000000
v 8.498245 -15.940351 0.000000
v 8.498245 -15.940351 6.000000
v 8.498245 15.839649 0.000000
v 8.498245 15.839649 6.000000
v -69.601746 -0.060351 2.000000
v -69.601746 -0.060351 4.000000
v -69.601746 -0.040351 2.000000
v -69.601746 -0.040351 4.000000
v -69.401749 -0.060351 2.000000
v -69.401749 -0.060351 4.000000
v -69.401749 -0.040351 2.000000
v -69.401749 -0.040351 4.000000
v -69.601746 -0.060351 2.000000
v -69.601746 -0.060351 4.000000
v -69.601746 -0.040351 2.000000
v -69.601746 -0.040351 4.000000
v -69.401749 -0.060351 2.000000
v -69.401749 -0.060351 4.000000
v -69.401749 -0.040351 2.000000
v -69.401749 -0.040351 4.000000
vn -1.0000 -0.0000 -0.0000
vn -0.0000 1.0000 -0.0000
vn 1.0000 -0.0000 -0.0000
vn -0.0000 -1.0000 -0.0000
vn -0.0000 -0.0000 -1.0000
vn -0.0000 -0.0000 1.0000
vt 0.375000 0.000000
vt 0.625000 0.000000
vt 0.625000 0.250000
vt 0.375000 0.250000
vt 0.625000 0.500000
vt 0.375000 0.500000
vt 0.625000 0.750000
vt 0.375000 0.750000
vt 0.625000 1.000000
vt 0.375000 1.000000
vt 0.125000 0.500000
vt 0.125000 0.750000
vt 0.875000 0.500000
vt 0.875000 0.750000
s 0
usemtl Wall
f 5/5/2 6/6/2 8/7/2 7/8/2
f 7/8/3 8/7/3 12/9/3 11/10/3
f 11/10/4 12/9/4 10/11/4 9/12/4
f 9/12/5 10/11/5 6/13/5 5/14/5
f 7/15/6 11/10/6 9/12/6 5/16/6
f 12/9/7 8/17/7 6/18/7 10/11/7
f 13/5/2 14/6/2 16/7/2 15/8/2
f 15/8/3 16/7/3 20/9/3 19/10/3
f 19/10/4 20/9/4 18/11/4 17/12/4
f 17/12/5 18/11/5 14/13/5 13/14/5
f 15/15/6 19/10/6 17/12/6 13/16/6
f 20/9/7 16/17/7 14/18/7 18/11/7
f 21/5/2 22/6/2 24/7/2 23/8/2
f 23/8/3 24/7/3 28/9/3 27/10/3
f 27/10/4 28/9/4 26/11/4 25/12/4
f 25/12/5 26/11/5 22/13/5 21/14/5
f 23/15/6 27/10/6 25/12/6 21/16/6
f 28/9/7 24/17/7 22/18/7 26/11/7
o wall2
v -8.347193 -15.990703 0.000000
v -8.347193 -15.990703 6.000000
v -8.347193 15.789298 0.000000
v -8.347193 15.789298 6.000000
v -7.347193 -15.990703 0.000000
v -7.347193 -15.990703 6.000000
v -7.347193 15.789298 0.000000
v -7.347193 15.789298 6.000000
v -85.447182 -0.110702 2.000000
v -85.447182 -0.110702 4.000000
v -85.447182 -0.090702 2.000000
v -85.447182 -0.090702 4.000000
v -85.247185 -0.110702 2.000000
v -85.247185 -0.110702 4.000000
v -85.247185 -0.090702 2.000000
v -85.247185 -0.090702 4.000000
v -85.447182 -0.110702 2.000000
v -85.447182 -0.110702 4.000000
v -85.447182 -0.090702 2.000000
v -85.447182 -0.090702 4.000000
v -85.247185 -0.110702 2.000000
v -85.247185 -0.110702 4.000000
v -85.247185 -0.090702 2.000000
v -85.247185 -0.090702 4.000000
vn -1.0000 -0.0000 -0.0000
vn -0.0000 1.0000 -0.0000
vn 1.0000 -0.0000 -0.0000
vn -0.0000 -1.0000 -0.0000
vn -0.0000 -0.0000 -1.0000
vn -0.0000 -0.0000 1.0000
vt 0.375000 0.000000
vt 0.625000 0.000000
vt 0.625000 0.250000
vt 0.375000 0.250000
vt 0.625000 0.500000
vt 0.375000 0.500000
vt 0.625000 0.750000
vt 0.375000 0.750000
vt 0.625000 1.000000
vt 0.375000 1.000000
vt 0.125000 0.500000
vt 0.125000 0.750000
vt 0.875000 0.500000
vt 0.875000 0.750000
s 0
usemtl Wall
f 29/19/8 30/20/8 32/21/8 31/22/8
f 31/22/9 32/21/9 36/23/9 35/24/9
f 35/24/10 36/23/10 34/25/10 33/26/10
f 33/26/11 34/25/11 30/27/11 29/28/11
f 31/29/12 35/24/12 33/26/12 29/30/12
f 36/23/13 32/31/13 30/32/13 34/25/13
f 37/19/8 38/20/8 40/21/8 39/22/8
f 39/22/9 40/21/9 44/23/9 43/24/9
f 43/24/10 44/23/10 42/25/10 41/26/10
f 41/26/11 42/25/11 38/27/11 37/28/11
f 39/29/12 43/24/12 41/26/12 37/30/12
f 44/23/13 40/31/13 38/32/13 42/25/13
f 45/19/8 46/20/8 48/21/8 47/22/8
f 47/22/9 48/21/9 52/23/9 51/24/9
f 51/24/10 52/23/10 50/25/10 49/26/10
f 49/26/11 50/25/11 46/27/11 45/28/11
f 47/29/12 51/24/12 49/26/12 45/30/12
f 52/23/13 48/31/13 46/32/13 50/25/13
o wall3
v -7.649298 -16.487192 0.000000
v -7.649298 -16.487192 6.000000
v -7.649298 -15.487192 0.000000
v -7.649298 -15.487192 6.000000
v 7.850702 -16.487192 0.000000
v 7.850702 -16.487192 6.000000
v 7.850702 -15.487192 0.000000
v 7.850702 -15.487192 6.000000
vn -1.0000 -0.0000 -0.0000
vn -0.0000 1.0000 -0.0000
vn 1.0000 -0.0000 -0.0000
vn -0.0000 -1.0000 -0.0000
vn -0.0000 -0.0000 -1.0000
vn -0.0000 -0.0000 1.0000
vt 0.375000 0.000000
vt 0.625000 0.000000
vt 0.625000 0.250000
vt 0.375000 0.250000
vt 0.625000 0.500000
vt 0.375000 0.500000
vt 0.625000 0.750000
vt 0.375000 0.750000
vt 0.625000 1.000000
vt 0.375000 1.000000
vt 0.125000 0.500000
vt 0.125000 0.750000
vt 0.875000 0.500000
vt 0.875000 0.750000
s 0
usemtl Wall
f 53/33/14 54/34/14 56/35/14 55/36/14
f 55/36/15 56/35/15 60/37/15 59/38/15
f 59/38/16 60/37/16 58/39/16 57/40/16
f 57/40/17 58/39/17 54/41/17 53/42/17
f 55/43/18 59/38/18 57/40/18 53/44/18
f 60/37/19 56/45/19 54/46/19 58/39/19
o wall4
v -7.750000 15.336139 0.000000
v -7.750000 15.336139 6.000000
v -7.750000 16.336140 0.000000
v -7.750000 16.336140 6.000000
v 7.750000 15.336139 0.000000
v 7.750000 15.336139 6.000000
v 7.750000 16.336140 0.000000
v 7.750000 16.336140 6.000000
vn -1.0000 -0.0000 -0.0000
vn -0.0000 1.0000 -0.0000
vn 1.0000 -0.0000 -0.0000
vn -0.0000 -1.0000 -0.0000
vn -0.0000 -0.0000 -1.0000
vn -0.0000 -0.0000 1.0000
vt 0.375000 0.000000
vt 0.625000 0.000000
vt 0.625000 0.250000
vt 0.375000 0.250000
vt 0.625000 0.500000
vt 0.375000 0.500000
vt 0.625000 0.750000
vt 0.375000 0.750000
vt 0.625000 1.000000
vt 0.375000 1.000000
vt 0.125000 0.500000
vt 0.125000 0.750000
vt 0.875000 0.500000
vt 0.875000 0.750000
s 0
usemtl Wall
f 61/47/20 62/48/20 64/49/20 63/50/20
f 63/50/21 64/49/21 68/51/21 67/52/21
f 67/52/22 68/51/22 66/53/22 65/54/22
f 65/54/23 66/53/23 62/55/23 61/56/23
f 63/57/24 67/52/24 65/54/24 61/58/24
f 68/51/25 64/59/25 62/60/25 66/53/25
o wall5
v -7.700000 -0.555000 0.000000
v -7.700000 -0.555000 6.000000
v -7.700000 16.445000 0.000000
v -7.700000 16.445000 6.000000
v -1.500000 -0.555000 0.000000
v -1.500000 -0.555000 6.000000
v -1.500000 16.445000 0.000000
v -1.500000 16.445000 6.000000
vn -1.0000 -0.0000 -0.0000
vn -0.0000 1.0000 -0.0000
vn 1.0000 -0.0000 -0.0000
vn -0.0000 -1.0000 -0.0000
vn -0.0000 -0.0000 -1.0000
vn -0.0000 -0.0000 1.0000
vt 0.375000 0.000000
vt 0.625000 0.000000
vt 0.625000 0.250000
vt 0.375000 0.250000
vt 0.625000 0.500000
vt 0.375000 0.500000
vt 0.625000 0.750000
vt 0.375000 0.750000
vt 0.625000 1.000000
vt 0.375000 1.000000
vt 0.125000 0.500000
vt 0.125000 0.750000
vt 0.875000 0.500000
vt 0.875000 0.750000
s 0
usemtl Wall
f 69/61/26 70/62/26 72/63/26 71/64/26
f 71/64/27 72/63/27 76/65/27 75/66/27
f 75/66/28 76/65/28 74/67/28 73/68/28
f 73/68/29 74/67/29 70/69/29 69/70/29
f 71/71/30 75/66/30 73/68/30 69/72/30
f 76/65/31 72/73/31 70/74/31 74/67/31
o wall6
v -4.451053 -12.761404 0.000000
v -4.451053 -12.761404 6.000000
v -4.451053 -5.641404 0.000000
v -4.451053 -5.641404 6.000000
v 7.548947 -12.761404 0.000000
v 7.548947 -12.761404 6.000000
v 7.548947 -5.641404 0.000000
v 7.548947 -5.641404 6.000000
vn -1.0000 -0.0000 -0.0000
vn -0.0000 1.0000 -0.0000
vn 1.0000 -0.0000 -0.0000
vn -0.0000 -1.0000 -0.0000
vn -0.0000 -0.0000 -1.0000
vn -0.0000 -0.0000 1.0000
vt 0.375000 0.000000
vt 0.625000 0.000000
vt 0.625000 0.250000
vt 0.375000 0.250000
vt 0.625000 0.500000
vt 0.375000 0.500000
vt 0.625000 0.750000
vt 0.375000 0.750000
vt 0.625000 1.000000
vt 0.375000 1.000000
vt 0.125000 0.500000
vt 0.125000 0.750000
vt 0.875000 0.500000
vt 0.875000 0.750000
s 0
usemtl Wall
f 77/75/32 78/76/32 80/77/32 79/78/32
f 79/78/33 80/77/33 84/79/33 83/80/33
f 83/80/34 84/79/34 82/81/34 81/82/34
f 81/82/35 82/81/35 78/83/35 77/84/35
f 79/85/36 83/80/36 81/82/36 77/86/36
f 84/79/37 80/87/37 78/88/37 82/81/37
o wall7
v -6.850351 -1.458751 0.000000
v -6.850351 -1.458751 6.000000
v -6.850351 -0.341249 0.000000
v -6.850351 -0.341249 6.000000
v -2.050351 -1.458751 0.000000
v -2.050351 -1.458751 6.000000
v -2.050351 -0.341249 0.000000
v -2.050351 -0.341249 6.000000
vn -1.0000 -0.0000 -0.0000
vn -0.0000 1.0000 -0.0000
vn 1.0000 -0.0000 -0.0000
vn -0.0000 -1.0000 -0.0000
vn -0.0000 -0.0000 -1.0000
vn -0.0000 -0.0000 1.0000
vt 0.375000 0.000000
vt 0.625000 0.000000
vt 0.625000 0.250000
vt 0.375000 0.250000
vt 0.625000 0.500000
vt 0.375000 0.500000
vt 0.625000 0.750000
vt 0.375000 0.750000
vt 0.625000 1.000000
vt 0.375000 1.000000
vt 0.125000 0.500000
vt 0.125000 0.750000
vt 0.875000 0.500000
vt 0.875000 0.750000
s 0
usemtl Wall
f 85/89/38 86/90/38 88/91/38 87/92/38
f 87/92/39 88/91/39 92/93/39 91/94/39
f 91/94/40 92/93/40 90/95/40 89/96/40
f 89/96/41 90/95/41 86/97/41 85/98/41
f 87/99/42 91/94/42 89/96/42 85/100/42
f 92/93/43 88/101/43 86/102/43 90/95/43
o wall9
v -7.598078 -7.696674 0.000000
v -7.598078 -7.696674 6.000000
v -7.598078 -5.696674 0.000000
v -7.598078 -5.696674 6.000000
v -6.198078 -7.696674 0.000000
v -6.198078 -7.696674 6.000000
v -6.198078 -5.696674 0.000000
v -6.198078 -5.696674 6.000000
vn -1.0000 -0.0000 -0.0000
vn -0.0000 1.0000 -0.0000
vn 1.0000 -0.0000 -0.0000
vn -0.0000 -1.0000 -0.0000
vn -0.0000 -0.0000 -1.0000
vn -0.0000 -0.0000 1.0000
vt 0.375000 0.000000
vt 0.625000 0.000000
vt 0.625000 0.250000
vt 0.375000 0.250000
vt 0.625000 0.500000
vt 0.375000 0.500000
vt 0.625000 0.750000
vt 0.375000 0.750000
vt 0.625000 1.000000
vt 0.375000 1.000000
vt 0.125000 0.500000
vt 0.125000 0.750000
vt 0.875000 0.500000
vt 0.875000 0.750000
s 0
usemtl Wall
f 93/103/44 94/104/44 96/105/44 95/106/44
f 95/106/45 96/105/45 100/107/45 99/108/45
f 99/108/46 100/107/46 98/109/46 97/110/46
f 97/110/47 98/109/47 94/111/47 93/112/47
f 95/113/48 99/108/48 97/110/48 93/114/48
f 100/107/49 96/115/49 94/116/49 98/109/49
o wall8
v 6.499482 5.941252 0.000000
v 6.499482 5.941252 6.000000
v 6.499482 15.508244 0.000000
v 6.499482 15.508244 6.000000
v 7.699482 5.941252 0.000000
v 7.699482 5.941252 6.000000
v 7.699482 15.508244 0.000000
v 7.699482 15.508244 6.000000
vn -1.0000 -0.0000 -0.0000
vn -0.0000 1.0000 -0.0000
vn 1.0000 -0.0000 -0.0000
vn -0.0000 -1.0000 -0.0000
vn -0.0000 -0.0000 -1.0000
vn -0.0000 -0.0000 1.0000
vt 0.375000 0.000000
vt 0.625000 0.000000
vt 0.625000 0.250000
vt 0.375000 0.250000
vt 0.625000 0.500000
vt 0.375000 0.500000
vt 0.625000 0.750000
vt 0.375000 0.750000
vt 0.625000 1.000000
vt 0.375000 1.000000
vt 0.125000 0.500000
vt 0.125000 0.750000
vt 0.875000 0.500000
vt 0.875000 0.750000
s 0
usemtl Wall
f 101/117/50 102/118/50 104/119/50 103/120/50
f 103/120/51 104/119/51 108/121/51 107/122/51
f 107/122/52 108/121/52 106/123/52 105/124/52
f 105/124/53 106/123/53 102/125/53 101/126/53
f 103/127/54 107/122/54 105/124/54 101/128/54
f 108/121/55 104/129/55 102/130/55 106/123/55
o wall10
v -1.755264 13.350016 0.000000
v -1.755264 13.350016 6.000000
v -1.755264 15.350016 0.000000
v -1.755264 15.350016 6.000000
v 0.244736 13.350016 0.000000
v 0.244736 13.350016 6.000000
v 0.244736 15.350016 0.000000
v 0.244736 15.350016 6.000000
vn -1.0000 -0.0000 -0.0000
vn -0.0000 1.0000 -0.0000
vn 1.0000 -0.0000 -0.0000
vn -0.0000 -1.0000 -0.0000
vn -0.0000 -0.0000 -1.0000
vn -0.0000 -0.0000 1.0000
vt 0.375000 0.000000
vt 0.625000 0.000000
vt 0.625000 0.250000
vt 0.375000 0.250000
vt 0.625000 0.500000
vt 0.375000 0.500000
vt 0.625000 0.750000
vt 0.375000 0.750000
vt 0.625000 1.000000
vt 0.375000 1.000000
vt 0.125000 0.500000
vt 0.125000 0.750000
vt 0.875000 0.500000
vt 0.875000 0.750000
s 0
usemtl Wall
f 109/131/56 110/132/56 112/133/56 111/134/56
f 111/134/57 112/133/57 116/135/57 115/136/57
f 115/136/58 116/135/58 114/137/58 113/138/58
f 113/138/59 114/137/59 110/139/59 109/140/59
f 111/141/60 115/136/60 113/138/60 109/142/60
f 116/135/61 112/143/61 110/144/61 114/137/61
o obstacle1
v 1.121758 -1.251755 0.000000
v 1.121758 -1.251755 1.400000
v 1.121758 0.748245 0.000000
v 1.121758 0.748245 1.400000
v 5.121758 -1.251755 0.000000
v 5.121758 -1.251755 1.400000
v 5.121758 0.748245 0.000000
v 5.121758 0.748245 1.400000
vn -1.0000 -0.0000 -0.0000
vn -0.0000 1.0000 -0.0000
vn 1.0000 -0.0000 -0.0000
vn -0.0000 -1.0000 -0.0000
vn -0.0000 -0.0000 -1.0000
vn -0.0000 -0.0000 1.0000
vt 0.375000 0.000000
vt 0.625000 0.000000
vt 0.625000 0.250000
vt 0.375000 0.250000
vt 0.625000 0.500000
vt 0.375000 0.500000
vt 0.625000 0.750000
vt 0.375000 0.750000
vt 0.625000 1.000000
vt 0.375000 1.000000
vt 0.125000 0.500000
vt 0.125000 0.750000
vt 0.875000 0.500000
vt 0.875000 0.750000
s 0
usemtl Obstacle
f 117/145/62 118/146/62 120/147/62 119/148/62
f 119/148/63 120/147/63 124/149/63 123/150/63
f 123/150/64 124/149/64 122/151/64 121/152/64
f 121/152/65 122/151/65 118/153/65 117/154/65
f 119/155/66 123/150/66 121/152/66 117/156/66
f 124/149/67 120/157/67 118/158/67 122/151/67
o obstacle2
v 1.121758 3.884040 0.000000
v 1.121758 3.884040 1.400000
v 1.121758 5.884040 0.000000
v 1.121758 5.884040 1.400000
v 5.121758 3.884040 0.000000
v 5.121758 3.884040 1.400000
v 5.121758 5.884040 0.000000
v 5.121758 5.884040 1.400000
vn -1.0000 -0.0000 -0.0000
vn -0.0000 1.0000 -0.0000
vn 1.0000 -0.0000 -0.0000
vn -0.0000 -1.0000 -0.0000
vn -0.0000 -0.0000 -1.0000
vn -0.0000 -0.0000 1.0000
vt 0.375000 0.000000
vt 0.625000 0.000000
vt 0.625000 0.250000
vt 0.375000 0.250000
vt 0.625000 0.500000
vt 0.375000 0.500000
vt 0.625000 0.750000
vt 0.375000 0.750000
vt 0.625000 1.000000
vt 0.375000 1.000000
vt 0.125000 0.500000
vt 0.125000 0.750000
vt 0.875000 0.500000
vt 0.875000 0.750000
s 0
usemtl Obstacle
f 125/159/68 126/160/68 128/161/68 127/162/68
f 127/162/69 128/161/69 132/163/69 131/164/69
f 131/164/70 132/163/70 130/165/70 129/166/70
f 129/166/71 130/165/71 126/167/71 125/168/71
f 127/169/72 131/164/72 129/166/72 125/170/72
f 132/163/73 128/171/73 126/172/73 130/165/73
o obstacle3
v 1.769301 8.775100 0.000000
v 1.769301 8.775100 1.400000
v 1.769301 12.775100 0.000000
v 1.769301 12.775100 1.400000
v 3.769301 8.775100 0.000000
v 3.769301 8.775100 1.400000
v 3.769301 12.775100 0.000000
v 3.769301 12.775100 1.400000
vn -1.0000 -0.0000 -0.0000
vn -0.0000 1.0000 -0.0000
vn 1.0000 -0.0000 -0.0000
vn -0.0000 -1.0000 -0.0000
vn -0.0000 -0.0000 -1.0000
vn -0.0000 -0.0000 1.0000
vt 0.375000 0.000000
vt 0.625000 0.000000
vt 0.625000 0.250000
vt 0.375000 0.250000
vt 0.625000 0.500000
vt 0.375000 0.500000
vt 0.625000 0.750000
vt 0.375000 0.750000
vt 0.625000 1.000000
vt 0.375000 1.000000
vt 0.125000 0.500000
vt 0.125000 0.750000
vt 0.875000 0.500000
vt 0.875000 0.750000
s 0
usemtl Obstacle
f 133/173/74 134/174/74 136/175/74 135/176/74
f 135/176/75 136/175/75 140/177/75 139/178/75
f 139/178/76 140/177/76 138/179/76 137/180/76
f 137/180/77 138/179/77 134/181/77 133/182/77
f 135/183/78 139/178/78 137/180/78 133/184/78
f 140/177/79 136/185/79 134/186/79 138/179/79
